<svg viewBox="0 0 1024 1024" xmlns="http://www.w3.org/2000/svg"><path fill="currentColor" d="M923 283.6c-13.4-31.1-32.6-58.9-56.9-82.8-24.3-23.8-52.5-42.4-83.7-55.4-32.4-13.6-66.8-20.4-102.4-20.4-39.8 0-78.2 8.8-114.1 26.2-23.3 11.3-44.9 25.5-64.5 42.2-19.6-16.7-41.2-30.9-64.5-42.2-35.9-17.4-74.3-26.2-114.1-26.2-35.6 0-70 6.9-102.4 20.4-31.2 13.1-59.4 31.6-83.7 55.4-24.3 23.9-43.5 51.7-56.9 82.8-13.9 32.3-20.9 66.6-20.9 102.1 0 37.7 7.9 73.8 23.5 107.4 14.1 31.1 34.1 59.2 59.4 83.4 23.2 22.1 49.6 40.4 78.4 54.3l191.6 95.8c13.6 6.8 29.5 6.8 43.1 0l191.6-95.8c28.8-13.9 55.2-32.2 78.4-54.3 25.3-24.2 45.3-52.3 59.4-83.4 15.6-33.6 23.5-69.7 23.5-107.4 0-35.5-7-69.8-20.9-102.1z"/></svg>