<svg viewBox="0 0 1024 1024" xmlns="http://www.w3.org/2000/svg"><path fill="currentColor" d="M574 665.4a8.03 8.03 0 00-11.3 0L446.5 781.3c-53.8 53.8-144.6 59.5-204 0-59.5-59.5-53.8-150.2 0-204l116.3-116.3a8.03 8.03 0 000-11.3l-45-45a8.03 8.03 0 00-11.3 0L186.3 521.3c-93.8 93.8-93.8 245.7 0 339.5 46.9 46.9 108.4 70.4 169.9 70.4s123-23.5 169.9-70.4l116.3-116.3a8.03 8.03 0 000-11.3l-45-45z"/><path fill="currentColor" d="M837.7 163.3c-93.8-93.8-245.7-93.8-339.5 0L381.9 279.6a8.03 8.03 0 000 11.3l45 45a8.03 8.03 0 0011.3 0l116.3-116.3c53.8-53.8 144.6-59.5 204 0 59.5 59.5 53.8 150.2 0 204L642.3 540.1a8.03 8.03 0 000 11.3l45 45a8.03 8.03 0 0011.3 0l116.3-116.3c93.8-93.8 93.8-245.7 0-339.5z"/></svg>