<svg t="1773389621546" class="icon" viewBox="0 0 1024 1024" version="1.1" xmlns="http://www.w3.org/2000/svg" p-id="5817" width="200" height="200"><path d="M905.216 20.48H417.792C360.448 20.48 311.296 69.632 311.296 126.976v180.224h151.552V212.992c0-24.576 20.48-40.96 40.96-40.96h307.2c24.576 0 40.96 16.384 40.96 40.96v593.92c0 24.576-16.384 40.96-40.96 40.96h-307.2c-20.48 0-40.96-16.384-40.96-40.96V696.32H311.296v200.704c0 57.344 49.152 106.496 106.496 106.496h487.424c57.344 0 106.496-49.152 106.496-106.496V126.976c0-57.344-49.152-106.496-106.496-106.496z" p-id="5818"></path><path d="M221.184 704.512c16.384 16.384 40.96 4.096 40.96-16.384V614.4h319.488c16.384 0 32.768-16.384 32.768-32.768v-163.84c0-16.384-16.384-32.768-32.768-32.768H262.144V311.296c0-20.48-24.576-32.768-40.96-16.384L24.576 483.328c-8.192 8.192-8.192 24.576 0 32.768l196.608 188.416z" p-id="5819"></path></svg>