<svg t="1773389800726" class="icon" viewBox="0 0 1024 1024" version="1.1" xmlns="http://www.w3.org/2000/svg" p-id="8606" width="200" height="200"><path d="M841.97376 142.39232H180.36736c-56.53504 0-102.528 45.99296-102.528 102.528v409.1392c0 56.53504 45.99296 102.528 102.528 102.528h59.9552l5.20704 115.86048a30.72 30.72 0 0 0 50.3552 22.2208l165.70368-138.08128h380.38528c56.53504 0 102.52288-45.99296 102.52288-102.528v-409.1392c0.00512-56.53504-45.98784-102.528-102.52288-102.528z m41.088 511.6672c0 22.656-18.432 41.088-41.08288 41.088H452.34176c-7.7824 0-14.86848 2.9184-20.28032 7.69024a30.58176 30.58176 0 0 0-7.3984 4.55168L304.128 807.82336l-3.74784-83.38944c-0.75776-16.9472-15.13472-30.00832-32.07168-29.312-0.32768 0.01536-0.64 0.06656-0.96256 0.09216-0.44544-0.02048-0.88064-0.06656-1.3312-0.06656H180.36736c-22.656 0-41.088-18.43712-41.088-41.088v-409.1392c0-22.656 18.43712-41.088 41.088-41.088h661.61152c22.656 0 41.08288 18.43712 41.08288 41.088v409.1392z" fill="#ff6b6b" p-id="8607"></path><path d="M290.85696 447.68256m-45.38368 0a45.38368 45.38368 0 1 0 90.76736 0 45.38368 45.38368 0 1 0-90.76736 0Z" fill="#ff6b6b" p-id="8608"></path><path d="M506.88 447.68256m-45.38368 0a45.38368 45.38368 0 1 0 90.76736 0 45.38368 45.38368 0 1 0-90.76736 0Z" fill="#ff6b6b" p-id="8609"></path><path d="M721.09056 447.68256m-45.38368 0a45.38368 45.38368 0 1 0 90.76736 0 45.38368 45.38368 0 1 0-90.76736 0Z" fill="#ff6b6b" p-id="8610"></path></svg>