<svg viewBox="0 0 1024 1024" xmlns="http://www.w3.org/2000/svg"><path fill="currentColor" d="M874.4 149.3H149.6C67 149.3 0 216.3 0 298.9v426.2c0 82.6 67 149.6 149.6 149.6h724.8c82.6 0 149.6-67 149.6-149.6V298.9c0-82.6-67-149.6-149.6-149.6zM149.6 211.3h724.8c48.3 0 87.6 39.3 87.6 87.6v426.2c0 48.3-39.3 87.6-87.6 87.6H149.6c-48.3 0-87.6-39.3-87.6-87.6V298.9c0-48.3 39.3-87.6 87.6-87.6z"/><path fill="currentColor" d="M512 554.7c-23.6 0-42.7-19.1-42.7-42.7s19.1-42.7 42.7-42.7 42.7 19.1 42.7 42.7-19.1 42.7-42.7 42.7zM725.3 554.7c-23.6 0-42.7-19.1-42.7-42.7s19.1-42.7 42.7-42.7 42.7 19.1 42.7 42.7-19.1 42.7-42.7 42.7zM298.7 554.7c-23.6 0-42.7-19.1-42.7-42.7s19.1-42.7 42.7-42.7 42.7 19.1 42.7 42.7-19.1 42.7-42.7 42.7z"/></svg>