<svg viewBox="0 0 1024 1024" xmlns="http://www.w3.org/2000/svg"><path fill="currentColor" d="M512 405.3c-58.9 0-106.7 47.8-106.7 106.7S453.1 618.7 512 618.7 618.7 570.9 618.7 512 570.9 405.3 512 405.3zm0 277.4c-94.1 0-170.7-76.6-170.7-170.7S417.9 341.3 512 341.3 682.7 417.9 682.7 512 606.1 682.7 512 682.7zM893.9 438.9l-71.7-12.5c-3.4-13.6-8.2-26.7-14.2-39.2l42.4-58.8c20.8-28.9 17.9-68.6-6.8-93.3l-48.5-48.5c-24.7-24.7-64.4-27.6-93.3-6.8l-58.8 42.4c-12.5-6-25.6-10.8-39.2-14.2l-12.5-71.7C589.6 98.5 556.7 74.7 518.9 74.7h-68.5c-37.8 0-70.7 23.8-82.4 58.4l-12.5 71.7c-13.6 3.4-26.7 8.2-39.2 14.2l-58.8-42.4c-28.9-20.8-68.6-17.9-93.3 6.8l-48.5 48.5c-24.7 24.7-27.6 64.4-6.8 93.3l42.4 58.8c-6 12.5-10.8 25.6-14.2 39.2l-71.7 12.5C98.5 450.4 74.7 483.3 74.7 521.1v68.5c0 37.8 23.8 70.7 58.4 82.4l71.7 12.5c3.4 13.6 8.2 26.7 14.2 39.2l-42.4 58.8c-20.8 28.9-17.9 68.6 6.8 93.3l48.5 48.5c24.7 24.7 64.4 27.6 93.3 6.8l58.8-42.4c12.5 6 25.6 10.8 39.2 14.2l12.5 71.7c11.7 34.6 44.6 58.4 82.4 58.4h68.5c37.8 0 70.7-23.8 82.4-58.4l12.5-71.7c13.6-3.4 26.7-8.2 39.2-14.2l58.8 42.4c28.9 20.8 68.6 17.9 93.3-6.8l48.5-48.5c24.7-24.7 27.6-64.4 6.8-93.3l-42.4-58.8c6-12.5 10.8-25.6 14.2-39.2l71.7-12.5c34.6-11.7 58.4-44.6 58.4-82.4v-68.5c0-37.8-23.8-70.7-58.4-82.4z"/></svg>