<svg viewBox="0 0 1024 1024" xmlns="http://www.w3.org/2000/svg"><path fill="currentColor" d="M768 640c-51.2 0-96 25.6-124.8 64l-256-153.6c6.4-19.2 12.8-38.4 12.8-64s-6.4-44.8-12.8-64l256-153.6c28.8 38.4 73.6 64 124.8 64 89.6 0 160-70.4 160-160s-70.4-160-160-160-160 70.4-160 160c0 25.6 6.4 44.8 12.8 64l-256 153.6c-28.8-38.4-73.6-64-124.8-64-89.6 0-160 70.4-160 160s70.4 160 160 160c51.2 0 96-25.6 124.8-64l256 153.6c-6.4 19.2-12.8 38.4-12.8 64 0 89.6 70.4 160 160 160s160-70.4 160-160-70.4-160-160-160z"/></svg>