<svg viewBox="0 0 1024 1024" xmlns="http://www.w3.org/2000/svg"><path fill="currentColor" d="M512 298.7c-117.8 0-213.3 95.5-213.3 213.3S394.2 725.3 512 725.3 725.3 629.8 725.3 512 629.8 298.7 512 298.7zm0 362.7c-82.4 0-149.3-66.9-149.3-149.3S429.6 362.7 512 362.7 661.3 429.6 661.3 512 594.4 661.3 512 661.3z"/><path fill="currentColor" d="M512 128c-212.1 0-384 171.9-384 384s171.9 384 384 384 384-171.9 384-384-171.9-384-384-384zm0 704c-176.7 0-320-143.3-320-320S335.3 192 512 192s320 143.3 320 320-143.3 320-320 320z"/></svg>